<?xml version="1.0" encoding="utf-8" ?>
<svg xmlns="http://www.w3.org/2000/svg" xmlns:ev="http://www.w3.org/2001/xml-events" xmlns:xlink="http://www.w3.org/1999/xlink" baseProfile="full" height="100%" version="1.1" width="100%">
  <defs/>
  <g transform="translate(0,0)">
    <text fill="#999" font-size="12" style="text-anchor:end;" x="200" y="18">Arabic</text>
    <rect fill="#F5F5F5" height="6" rx="3" ry="3" width="160" x="210" y="11.6"/>
    <rect fill="#5D89C3" height="6" rx="3" ry="3" width="160.0" x="210" y="11.6"/>
    <text fill="#999" font-size="10" x="380" y="18">100%</text>
  </g>
  <g transform="translate(0,26)">
    <text fill="#999" font-size="12" style="text-anchor:end;" x="200" y="18">German</text>
    <rect fill="#F5F5F5" height="6" rx="3" ry="3" width="160" x="210" y="11.6"/>
    <rect fill="#5D89C3" height="6" rx="3" ry="3" width="160.0" x="210" y="11.6"/>
    <text fill="#999" font-size="10" x="380" y="18">100%</text>
  </g>
  <g transform="translate(0,52)">
    <text fill="#999" font-size="12" style="text-anchor:end;" x="200" y="18">Spanish</text>
    <rect fill="#F5F5F5" height="6" rx="3" ry="3" width="160" x="210" y="11.6"/>
    <rect fill="#5D89C3" height="6" rx="3" ry="3" width="160.0" x="210" y="11.6"/>
    <rect fill="#71C277" height="6" rx="3" ry="3" width="46.4" x="210" y="11.6"/>
    <text fill="#999" font-size="10" x="380" y="18">100%</text>
  </g>
  <g transform="translate(0,78)">
    <text fill="#999" font-size="12" style="text-anchor:end;" x="200" y="18">French</text>
    <rect fill="#F5F5F5" height="6" rx="3" ry="3" width="160" x="210" y="11.6"/>
    <text fill="#999" font-size="10" x="380" y="18">0%</text>
  </g>
  <g transform="translate(0,104)">
    <text fill="#999" font-size="12" style="text-anchor:end;" x="200" y="18">Croatian</text>
    <rect fill="#F5F5F5" height="6" rx="3" ry="3" width="160" x="210" y="11.6"/>
    <rect fill="#5D89C3" height="6" rx="3" ry="3" width="160.0" x="210" y="11.6"/>
    <rect fill="#71C277" height="6" rx="3" ry="3" width="160.0" x="210" y="11.6"/>
    <text fill="#999" font-size="10" x="380" y="18">100%</text>
  </g>
  <g transform="translate(0,130)">
    <text fill="#999" font-size="12" style="text-anchor:end;" x="200" y="18">Indonesian</text>
    <rect fill="#F5F5F5" height="6" rx="3" ry="3" width="160" x="210" y="11.6"/>
    <rect fill="#5D89C3" height="6" rx="3" ry="3" width="160.0" x="210" y="11.6"/>
    <text fill="#999" font-size="10" x="380" y="18">100%</text>
  </g>
  <g transform="translate(0,156)">
    <text fill="#999" font-size="12" style="text-anchor:end;" x="200" y="18">Italian</text>
    <rect fill="#F5F5F5" height="6" rx="3" ry="3" width="160" x="210" y="11.6"/>
    <rect fill="#5D89C3" height="6" rx="3" ry="3" width="160.0" x="210" y="11.6"/>
    <rect fill="#71C277" height="6" rx="3" ry="3" width="158.4" x="210" y="11.6"/>
    <text fill="#999" font-size="10" x="380" y="18">100%</text>
  </g>
  <g transform="translate(0,182)">
    <text fill="#999" font-size="12" style="text-anchor:end;" x="200" y="18">Japanese</text>
    <rect fill="#F5F5F5" height="6" rx="3" ry="3" width="160" x="210" y="11.6"/>
    <rect fill="#5D89C3" height="6" rx="3" ry="3" width="4.8" x="210" y="11.6"/>
    <text fill="#999" font-size="10" x="380" y="18">3%</text>
  </g>
  <g transform="translate(0,208)">
    <text fill="#999" font-size="12" style="text-anchor:end;" x="200" y="18">Korean</text>
    <rect fill="#F5F5F5" height="6" rx="3" ry="3" width="160" x="210" y="11.6"/>
    <text fill="#999" font-size="10" x="380" y="18">0%</text>
  </g>
  <g transform="translate(0,234)">
    <text fill="#999" font-size="12" style="text-anchor:end;" x="200" y="18">Latin</text>
    <rect fill="#F5F5F5" height="6" rx="3" ry="3" width="160" x="210" y="11.6"/>
    <text fill="#999" font-size="10" x="380" y="18">0%</text>
  </g>
  <g transform="translate(0,260)">
    <text fill="#999" font-size="12" style="text-anchor:end;" x="200" y="18">Dutch</text>
    <rect fill="#F5F5F5" height="6" rx="3" ry="3" width="160" x="210" y="11.6"/>
    <text fill="#999" font-size="10" x="380" y="18">0%</text>
  </g>
  <g transform="translate(0,286)">
    <text fill="#999" font-size="12" style="text-anchor:end;" x="200" y="18">Polish</text>
    <rect fill="#F5F5F5" height="6" rx="3" ry="3" width="160" x="210" y="11.6"/>
    <rect fill="#5D89C3" height="6" rx="3" ry="3" width="96.0" x="210" y="11.6"/>
    <text fill="#999" font-size="10" x="380" y="18">60%</text>
  </g>
  <g transform="translate(0,312)">
    <text fill="#999" font-size="12" style="text-anchor:end;" x="200" y="18">Portuguese</text>
    <rect fill="#F5F5F5" height="6" rx="3" ry="3" width="160" x="210" y="11.6"/>
    <rect fill="#5D89C3" height="6" rx="3" ry="3" width="158.4" x="210" y="11.6"/>
    <text fill="#999" font-size="10" x="380" y="18">99%</text>
  </g>
  <g transform="translate(0,338)">
    <text fill="#999" font-size="12" style="text-anchor:end;" x="200" y="18">Russian</text>
    <rect fill="#F5F5F5" height="6" rx="3" ry="3" width="160" x="210" y="11.6"/>
    <rect fill="#5D89C3" height="6" rx="3" ry="3" width="160.0" x="210" y="11.6"/>
    <rect fill="#71C277" height="6" rx="3" ry="3" width="160.0" x="210" y="11.6"/>
    <text fill="#999" font-size="10" x="380" y="18">100%</text>
  </g>
  <g transform="translate(0,364)">
    <text fill="#999" font-size="12" style="text-anchor:end;" x="200" y="18">Turkish</text>
    <rect fill="#F5F5F5" height="6" rx="3" ry="3" width="160" x="210" y="11.6"/>
    <text fill="#999" font-size="10" x="380" y="18">0%</text>
  </g>
  <g transform="translate(0,390)">
    <text fill="#999" font-size="12" style="text-anchor:end;" x="200" y="18">Ukrainian</text>
    <rect fill="#F5F5F5" height="6" rx="3" ry="3" width="160" x="210" y="11.6"/>
    <text fill="#999" font-size="10" x="380" y="18">0%</text>
  </g>
  <g transform="translate(0,416)">
    <text fill="#999" font-size="12" style="text-anchor:end;" x="200" y="18">Chinese Simplified</text>
    <rect fill="#F5F5F5" height="6" rx="3" ry="3" width="160" x="210" y="11.6"/>
    <rect fill="#5D89C3" height="6" rx="3" ry="3" width="160.0" x="210" y="11.6"/>
    <rect fill="#71C277" height="6" rx="3" ry="3" width="160.0" x="210" y="11.6"/>
    <text fill="#999" font-size="10" x="380" y="18">100%</text>
  </g>
  <g transform="translate(0,442)">
    <text fill="#999" font-size="12" style="text-anchor:end;" x="200" y="18">Chinese Traditional</text>
    <rect fill="#F5F5F5" height="6" rx="3" ry="3" width="160" x="210" y="11.6"/>
    <rect fill="#5D89C3" height="6" rx="3" ry="3" width="160.0" x="210" y="11.6"/>
    <rect fill="#71C277" height="6" rx="3" ry="3" width="160.0" x="210" y="11.6"/>
    <text fill="#999" font-size="10" x="380" y="18">100%</text>
  </g>
</svg>
