<?xml version="1.0" encoding="utf-8" ?>
<svg xmlns="http://www.w3.org/2000/svg" xmlns:ev="http://www.w3.org/2001/xml-events" xmlns:xlink="http://www.w3.org/1999/xlink" baseProfile="full" height="910" version="1.1" width="500">
  <defs>
    <style type="text/css"><![CDATA[
@import url(https://fonts.googleapis.com/css?family=Noto+Sans);
.font12 {
    font-family: "Noto Sans";
    font-size: 12px;
    fill: #999;
}
]]></style>
  </defs>
  <g class="font12" transform="translate(0,0)">
    <text style="text-anchor:end;" x="200" y="18">Albanian</text>
    <rect fill="#999" height="6" rx="3" ry="3" style="filter:opacity(30%);" width="160" x="210" y="11.4"/>
    <text x="380" y="18">0%</text>
  </g>
  <g class="font12" transform="translate(0,26)">
    <text style="text-anchor:end;" x="200" y="18">Arabic</text>
    <rect fill="#999" height="6" rx="3" ry="3" style="filter:opacity(30%);" width="160" x="210" y="11.4"/>
    <rect fill="#5D89C3" height="6" rx="3" ry="3" width="150.39999999999998" x="210" y="11.4"/>
    <text x="380" y="18">94%</text>
  </g>
  <g class="font12" transform="translate(0,52)">
    <text style="text-anchor:end;" x="200" y="18">Bengali</text>
    <rect fill="#999" height="6" rx="3" ry="3" style="filter:opacity(30%);" width="160" x="210" y="11.4"/>
    <rect fill="#5D89C3" height="6" rx="3" ry="3" width="153.6" x="210" y="11.4"/>
    <rect fill="#71C277" height="6" rx="3" ry="3" width="99.2" x="210" y="11.4"/>
    <text x="380" y="18">96%</text>
  </g>
  <g class="font12" transform="translate(0,78)">
    <text style="text-anchor:end;" x="200" y="18">Burmese</text>
    <rect fill="#999" height="6" rx="3" ry="3" style="filter:opacity(30%);" width="160" x="210" y="11.4"/>
    <rect fill="#5D89C3" height="6" rx="3" ry="3" width="68.8" x="210" y="11.4"/>
    <text x="380" y="18">43%</text>
  </g>
  <g class="font12" transform="translate(0,104)">
    <text style="text-anchor:end;" x="200" y="18">Chinese Simplified</text>
    <rect fill="#999" height="6" rx="3" ry="3" style="filter:opacity(30%);" width="160" x="210" y="11.4"/>
    <rect fill="#5D89C3" height="6" rx="3" ry="3" width="160.0" x="210" y="11.4"/>
    <rect fill="#71C277" height="6" rx="3" ry="3" width="150.39999999999998" x="210" y="11.4"/>
    <text x="380" y="18">100%</text>
  </g>
  <g class="font12" transform="translate(0,130)">
    <text style="text-anchor:end;" x="200" y="18">Chinese Traditional</text>
    <rect fill="#999" height="6" rx="3" ry="3" style="filter:opacity(30%);" width="160" x="210" y="11.4"/>
    <rect fill="#5D89C3" height="6" rx="3" ry="3" width="155.2" x="210" y="11.4"/>
    <rect fill="#71C277" height="6" rx="3" ry="3" width="67.2" x="210" y="11.4"/>
    <text x="380" y="18">97%</text>
  </g>
  <g class="font12" transform="translate(0,156)">
    <text style="text-anchor:end;" x="200" y="18">Croatian</text>
    <rect fill="#999" height="6" rx="3" ry="3" style="filter:opacity(30%);" width="160" x="210" y="11.4"/>
    <rect fill="#5D89C3" height="6" rx="3" ry="3" width="158.4" x="210" y="11.4"/>
    <text x="380" y="18">99%</text>
  </g>
  <g class="font12" transform="translate(0,182)">
    <text style="text-anchor:end;" x="200" y="18">Czech</text>
    <rect fill="#999" height="6" rx="3" ry="3" style="filter:opacity(30%);" width="160" x="210" y="11.4"/>
    <rect fill="#5D89C3" height="6" rx="3" ry="3" width="155.2" x="210" y="11.4"/>
    <text x="380" y="18">97%</text>
  </g>
  <g class="font12" transform="translate(0,208)">
    <text style="text-anchor:end;" x="200" y="18">Dutch</text>
    <rect fill="#999" height="6" rx="3" ry="3" style="filter:opacity(30%);" width="160" x="210" y="11.4"/>
    <rect fill="#5D89C3" height="6" rx="3" ry="3" width="72.0" x="210" y="11.4"/>
    <text x="380" y="18">45%</text>
  </g>
  <g class="font12" transform="translate(0,234)">
    <text style="text-anchor:end;" x="200" y="18">English (Original)</text>
    <rect fill="#999" height="6" rx="3" ry="3" style="filter:opacity(30%);" width="160" x="210" y="11.4"/>
    <rect fill="#5D89C3" height="6" rx="3" ry="3" width="160.0" x="210" y="11.4"/>
    <rect fill="#71C277" height="6" rx="3" ry="3" width="160.0" x="210" y="11.4"/>
    <text x="380" y="18">100%</text>
  </g>
  <g class="font12" transform="translate(0,260)">
    <text style="text-anchor:end;" x="200" y="18">Filipino</text>
    <rect fill="#999" height="6" rx="3" ry="3" style="filter:opacity(30%);" width="160" x="210" y="11.4"/>
    <rect fill="#5D89C3" height="6" rx="3" ry="3" width="70.4" x="210" y="11.4"/>
    <text x="380" y="18">44%</text>
  </g>
  <g class="font12" transform="translate(0,286)">
    <text style="text-anchor:end;" x="200" y="18">Finnish</text>
    <rect fill="#999" height="6" rx="3" ry="3" style="filter:opacity(30%);" width="160" x="210" y="11.4"/>
    <rect fill="#5D89C3" height="6" rx="3" ry="3" width="83.2" x="210" y="11.4"/>
    <text x="380" y="18">52%</text>
  </g>
  <g class="font12" transform="translate(0,312)">
    <text style="text-anchor:end;" x="200" y="18">French</text>
    <rect fill="#999" height="6" rx="3" ry="3" style="filter:opacity(30%);" width="160" x="210" y="11.4"/>
    <rect fill="#5D89C3" height="6" rx="3" ry="3" width="145.6" x="210" y="11.4"/>
    <text x="380" y="18">91%</text>
  </g>
  <g class="font12" transform="translate(0,338)">
    <text style="text-anchor:end;" x="200" y="18">German</text>
    <rect fill="#999" height="6" rx="3" ry="3" style="filter:opacity(30%);" width="160" x="210" y="11.4"/>
    <rect fill="#5D89C3" height="6" rx="3" ry="3" width="152.0" x="210" y="11.4"/>
    <text x="380" y="18">95%</text>
  </g>
  <g class="font12" transform="translate(0,364)">
    <text style="text-anchor:end;" x="200" y="18">Greek</text>
    <rect fill="#999" height="6" rx="3" ry="3" style="filter:opacity(30%);" width="160" x="210" y="11.4"/>
    <rect fill="#5D89C3" height="6" rx="3" ry="3" width="153.6" x="210" y="11.4"/>
    <text x="380" y="18">96%</text>
  </g>
  <g class="font12" transform="translate(0,390)">
    <text style="text-anchor:end;" x="200" y="18">Hungarian</text>
    <rect fill="#999" height="6" rx="3" ry="3" style="filter:opacity(30%);" width="160" x="210" y="11.4"/>
    <rect fill="#5D89C3" height="6" rx="3" ry="3" width="128.0" x="210" y="11.4"/>
    <text x="380" y="18">80%</text>
  </g>
  <g class="font12" transform="translate(0,416)">
    <text style="text-anchor:end;" x="200" y="18">Indonesian</text>
    <rect fill="#999" height="6" rx="3" ry="3" style="filter:opacity(30%);" width="160" x="210" y="11.4"/>
    <rect fill="#5D89C3" height="6" rx="3" ry="3" width="153.6" x="210" y="11.4"/>
    <text x="380" y="18">96%</text>
  </g>
  <g class="font12" transform="translate(0,442)">
    <text style="text-anchor:end;" x="200" y="18">Italian</text>
    <rect fill="#999" height="6" rx="3" ry="3" style="filter:opacity(30%);" width="160" x="210" y="11.4"/>
    <rect fill="#5D89C3" height="6" rx="3" ry="3" width="140.8" x="210" y="11.4"/>
    <text x="380" y="18">88%</text>
  </g>
  <g class="font12" transform="translate(0,468)">
    <text style="text-anchor:end;" x="200" y="18">Japanese</text>
    <rect fill="#999" height="6" rx="3" ry="3" style="filter:opacity(30%);" width="160" x="210" y="11.4"/>
    <rect fill="#5D89C3" height="6" rx="3" ry="3" width="158.4" x="210" y="11.4"/>
    <text x="380" y="18">99%</text>
  </g>
  <g class="font12" transform="translate(0,494)">
    <text style="text-anchor:end;" x="200" y="18">Korean</text>
    <rect fill="#999" height="6" rx="3" ry="3" style="filter:opacity(30%);" width="160" x="210" y="11.4"/>
    <rect fill="#5D89C3" height="6" rx="3" ry="3" width="160.0" x="210" y="11.4"/>
    <text x="380" y="18">100%</text>
  </g>
  <g class="font12" transform="translate(0,520)">
    <text style="text-anchor:end;" x="200" y="18">Lao</text>
    <rect fill="#999" height="6" rx="3" ry="3" style="filter:opacity(30%);" width="160" x="210" y="11.4"/>
    <rect fill="#5D89C3" height="6" rx="3" ry="3" width="73.60000000000001" x="210" y="11.4"/>
    <text x="380" y="18">46%</text>
  </g>
  <g class="font12" transform="translate(0,546)">
    <text style="text-anchor:end;" x="200" y="18">Latin</text>
    <rect fill="#999" height="6" rx="3" ry="3" style="filter:opacity(30%);" width="160" x="210" y="11.4"/>
    <rect fill="#5D89C3" height="6" rx="3" ry="3" width="6.4" x="210" y="11.4"/>
    <text x="380" y="18">4%</text>
  </g>
  <g class="font12" transform="translate(0,572)">
    <text style="text-anchor:end;" x="200" y="18">Norwegian</text>
    <rect fill="#999" height="6" rx="3" ry="3" style="filter:opacity(30%);" width="160" x="210" y="11.4"/>
    <rect fill="#5D89C3" height="6" rx="3" ry="3" width="73.60000000000001" x="210" y="11.4"/>
    <text x="380" y="18">46%</text>
  </g>
  <g class="font12" transform="translate(0,598)">
    <text style="text-anchor:end;" x="200" y="18">Polish</text>
    <rect fill="#999" height="6" rx="3" ry="3" style="filter:opacity(30%);" width="160" x="210" y="11.4"/>
    <rect fill="#5D89C3" height="6" rx="3" ry="3" width="160.0" x="210" y="11.4"/>
    <text x="380" y="18">100%</text>
  </g>
  <g class="font12" transform="translate(0,624)">
    <text style="text-anchor:end;" x="200" y="18">Portuguese</text>
    <rect fill="#999" height="6" rx="3" ry="3" style="filter:opacity(30%);" width="160" x="210" y="11.4"/>
    <rect fill="#5D89C3" height="6" rx="3" ry="3" width="124.80000000000001" x="210" y="11.4"/>
    <text x="380" y="18">78%</text>
  </g>
  <g class="font12" transform="translate(0,650)">
    <text style="text-anchor:end;" x="200" y="18">Portuguese, Brazilian</text>
    <rect fill="#999" height="6" rx="3" ry="3" style="filter:opacity(30%);" width="160" x="210" y="11.4"/>
    <rect fill="#5D89C3" height="6" rx="3" ry="3" width="142.4" x="210" y="11.4"/>
    <text x="380" y="18">89%</text>
  </g>
  <g class="font12" transform="translate(0,676)">
    <text style="text-anchor:end;" x="200" y="18">Romanian</text>
    <rect fill="#999" height="6" rx="3" ry="3" style="filter:opacity(30%);" width="160" x="210" y="11.4"/>
    <rect fill="#5D89C3" height="6" rx="3" ry="3" width="158.4" x="210" y="11.4"/>
    <rect fill="#71C277" height="6" rx="3" ry="3" width="4.8" x="210" y="11.4"/>
    <text x="380" y="18">99%</text>
  </g>
  <g class="font12" transform="translate(0,702)">
    <text style="text-anchor:end;" x="200" y="18">Russian</text>
    <rect fill="#999" height="6" rx="3" ry="3" style="filter:opacity(30%);" width="160" x="210" y="11.4"/>
    <rect fill="#5D89C3" height="6" rx="3" ry="3" width="153.6" x="210" y="11.4"/>
    <rect fill="#71C277" height="6" rx="3" ry="3" width="9.6" x="210" y="11.4"/>
    <text x="380" y="18">96%</text>
  </g>
  <g class="font12" transform="translate(0,728)">
    <text style="text-anchor:end;" x="200" y="18">Spanish</text>
    <rect fill="#999" height="6" rx="3" ry="3" style="filter:opacity(30%);" width="160" x="210" y="11.4"/>
    <rect fill="#5D89C3" height="6" rx="3" ry="3" width="147.20000000000002" x="210" y="11.4"/>
    <rect fill="#71C277" height="6" rx="3" ry="3" width="140.8" x="210" y="11.4"/>
    <text x="380" y="18">92%</text>
  </g>
  <g class="font12" transform="translate(0,754)">
    <text style="text-anchor:end;" x="200" y="18">Swedish</text>
    <rect fill="#999" height="6" rx="3" ry="3" style="filter:opacity(30%);" width="160" x="210" y="11.4"/>
    <rect fill="#5D89C3" height="6" rx="3" ry="3" width="88.0" x="210" y="11.4"/>
    <text x="380" y="18">55%</text>
  </g>
  <g class="font12" transform="translate(0,780)">
    <text style="text-anchor:end;" x="200" y="18">Tamil</text>
    <rect fill="#999" height="6" rx="3" ry="3" style="filter:opacity(30%);" width="160" x="210" y="11.4"/>
    <rect fill="#5D89C3" height="6" rx="3" ry="3" width="140.8" x="210" y="11.4"/>
    <text x="380" y="18">88%</text>
  </g>
  <g class="font12" transform="translate(0,806)">
    <text style="text-anchor:end;" x="200" y="18">Thai</text>
    <rect fill="#999" height="6" rx="3" ry="3" style="filter:opacity(30%);" width="160" x="210" y="11.4"/>
    <rect fill="#5D89C3" height="6" rx="3" ry="3" width="83.2" x="210" y="11.4"/>
    <rect fill="#71C277" height="6" rx="3" ry="3" width="3.2" x="210" y="11.4"/>
    <text x="380" y="18">52%</text>
  </g>
  <g class="font12" transform="translate(0,832)">
    <text style="text-anchor:end;" x="200" y="18">Turkish</text>
    <rect fill="#999" height="6" rx="3" ry="3" style="filter:opacity(30%);" width="160" x="210" y="11.4"/>
    <rect fill="#5D89C3" height="6" rx="3" ry="3" width="158.4" x="210" y="11.4"/>
    <text x="380" y="18">99%</text>
  </g>
  <g class="font12" transform="translate(0,858)">
    <text style="text-anchor:end;" x="200" y="18">Ukrainian</text>
    <rect fill="#999" height="6" rx="3" ry="3" style="filter:opacity(30%);" width="160" x="210" y="11.4"/>
    <rect fill="#5D89C3" height="6" rx="3" ry="3" width="158.4" x="210" y="11.4"/>
    <text x="380" y="18">99%</text>
  </g>
  <g class="font12" transform="translate(0,884)">
    <text style="text-anchor:end;" x="200" y="18">Vietnamese</text>
    <rect fill="#999" height="6" rx="3" ry="3" style="filter:opacity(30%);" width="160" x="210" y="11.4"/>
    <rect fill="#5D89C3" height="6" rx="3" ry="3" width="156.8" x="210" y="11.4"/>
    <text x="380" y="18">98%</text>
  </g>
</svg>
