<svg width="512" height="512" viewBox="0 0 512 512" fill="none" xmlns="http://www.w3.org/2000/svg">
<path d="M256.001 446.355C229.626 446.355 212.19 428.059 194.799 397.937C177.408 367.815 91.5356 219.08 74.1446 188.958C56.7536 158.836 49.6266 134.588 62.8136 111.747C76.0006 88.906 100.564 82.954 135.346 82.954C170.128 82.954 341.872 82.954 376.654 82.954C411.436 82.954 435.999 88.906 449.186 111.747C462.373 134.588 455.246 158.836 437.855 188.958C420.464 219.08 334.592 367.815 317.201 397.937C299.81 428.059 282.374 446.355 256 446.355H256.001Z" fill="#202124"/>
<mask id="mask0_2_547" style="mask-type:luminance" maskUnits="userSpaceOnUse" x="56" y="82" width="400" height="365">
<path d="M256.001 446.355C229.626 446.355 212.19 428.059 194.799 397.937C177.408 367.815 91.5356 219.08 74.1446 188.958C56.7536 158.836 49.6266 134.588 62.8136 111.747C76.0006 88.906 100.564 82.954 135.346 82.954C170.128 82.954 341.872 82.954 376.654 82.954C411.436 82.954 435.999 88.906 449.186 111.747C462.373 134.588 455.246 158.836 437.855 188.958C420.464 219.08 334.592 367.815 317.201 397.937C299.81 428.059 282.374 446.355 256 446.355H256.001Z" fill="white"/>
</mask>
<g mask="url(#mask0_2_547)">
<path d="M344.016 285.041C286.329 262.165 262.181 187.482 259 153H256V399L449 320.364C438.042 318.121 401.704 307.917 344.016 285.041Z" fill="#C6FF00"/>
<path d="M167.984 285.041C225.671 262.165 249.819 187.482 253 153H256V399L63 320.364C73.9579 318.121 110.296 307.917 167.984 285.041Z" fill="#C6FF00"/>
<path d="M297.5 284.816C270.3 261.979 260.5 187.423 259 153H256V398.58L347 320.078C341.833 317.84 324.7 307.653 297.5 284.816Z" fill="white"/>
<path d="M214.5 284.816C241.7 261.979 251.5 187.423 253 153H256V398.58L165 320.078C170.167 317.84 187.3 307.653 214.5 284.816Z" fill="white"/>
<circle cx="256" cy="153" r="3" fill="white"/>
<rect x="151" y="350" width="199" height="104" fill="#5F6368"/>
<path d="M358.423 350.438C358.356 350.016 358.293 349.6 358.222 349.181C357.797 346.596 357.267 344.042 356.65 341.521C355.571 337.116 354.213 332.819 352.591 328.656C351.22 325.13 349.661 321.7 347.928 318.376C345.699 314.108 343.185 310.01 340.409 306.113C337.007 301.338 333.209 296.864 329.059 292.741C327.316 291.009 325.515 289.337 323.652 287.735C319.622 284.256 315.315 281.087 310.78 278.255C310.82 278.19 310.853 278.119 310.894 278.054C312.972 274.463 315.054 270.878 317.132 267.288C319.166 263.783 321.198 260.278 323.229 256.773C324.691 254.257 326.152 251.736 327.607 249.22C327.952 248.623 328.224 248.005 328.428 247.373C328.998 245.61 329.022 243.757 328.566 242.034C328.449 241.608 328.311 241.191 328.14 240.784C327.969 240.377 327.768 239.981 327.54 239.599C326.762 238.293 325.653 237.159 324.258 236.33C323.024 235.597 321.643 235.16 320.229 235.034C319.635 234.984 319.039 234.989 318.445 235.049C317.956 235.099 317.47 235.19 316.988 235.316C315.264 235.773 313.669 236.717 312.425 238.082C311.979 238.575 311.577 239.117 311.229 239.714C309.771 242.229 308.309 244.75 306.854 247.266L300.757 257.781C298.678 261.371 296.596 264.957 294.518 268.547C294.29 268.939 294.059 269.33 293.835 269.727C293.519 269.601 293.208 269.476 292.892 269.356C281.431 264.987 269.001 262.597 256.007 262.597C255.65 262.597 255.299 262.597 254.943 262.601C243.389 262.717 232.288 264.726 221.934 268.331C220.734 268.748 219.55 269.19 218.375 269.652C218.165 269.285 217.949 268.918 217.738 268.552C215.66 264.961 213.577 261.376 211.5 257.786C209.467 254.281 207.434 250.776 205.402 247.271C203.941 244.755 202.481 242.234 201.025 239.719C200.679 239.121 200.278 238.579 199.83 238.087C198.585 236.721 196.99 235.777 195.268 235.32C194.786 235.195 194.299 235.104 193.808 235.054C193.216 234.994 192.618 234.989 192.026 235.039C190.611 235.16 189.23 235.597 187.996 236.335C186.6 237.164 185.497 238.298 184.713 239.604C184.487 239.985 184.287 240.382 184.116 240.789C183.946 241.196 183.8 241.613 183.69 242.039C183.233 243.762 183.258 245.615 183.825 247.378C184.031 248.01 184.302 248.628 184.649 249.225C186.109 251.741 187.57 254.262 189.025 256.778C191.058 260.283 193.09 263.788 195.123 267.292C197.201 270.883 199.284 274.468 201.361 278.059C201.376 278.089 201.397 278.119 201.412 278.149C197.221 280.756 193.23 283.643 189.467 286.801C187.213 288.694 185.04 290.678 182.957 292.751C178.812 296.874 175.012 301.348 171.604 306.123C168.824 310.02 166.309 314.112 164.086 318.386C162.355 321.71 160.794 325.14 159.423 328.666C157.802 332.829 156.442 337.127 155.363 341.531C154.746 344.052 154.224 346.599 153.792 349.191C153.722 349.61 153.656 350.032 153.591 350.448C153.361 351.95 153.165 353.462 152.999 354.984L359 354.984C358.836 353.462 358.638 351.95 358.407 350.448L358.423 350.438Z" fill="#5F6368"/>
</g>
<path d="M131.04 134.343H127V138.383H131.04V134.343Z" fill="white"/>
<path d="M167.04 256H163V260.04H167.04V256Z" fill="white"/>
<path d="M373.487 127H369.447V131.04H373.487V127Z" fill="white"/>
<path d="M292.04 226H288V230.04H292.04V226Z" fill="white"/>
<path d="M319.039 186.91H314.999V190.95H319.039V186.91Z" fill="white"/>
<path d="M355.04 222H351V226.04H355.04V222Z" fill="white"/>
<path d="M192.04 136H188V140.04H192.04V136Z" fill="white"/>
<path d="M336.08 196H328V204.08H336.08V196Z" fill="white"/>
<path d="M222.04 212H218V216.04H222.04V212Z" fill="white"/>
<path d="M163.08 175H155V183.08H163.08V175Z" fill="white"/>
<path d="M211.08 143H203V151.08H211.08V143Z" fill="white"/>
<path d="M369.08 204H361V212.08H369.08V204Z" fill="white"/>
<path d="M169.211 204.343H161.131V212.423H169.211V204.343Z" fill="white"/>
<path d="M383.035 160.067H374.955V168.147H383.035V160.067Z" fill="white"/>
<path d="M192.08 183H184V191.08H192.08V183Z" fill="white"/>
<path d="M256.001 446.355C229.626 446.355 212.19 428.059 194.799 397.937C177.408 367.815 91.5356 219.08 74.1446 188.958C56.7536 158.836 49.6266 134.588 62.8136 111.747C76.0006 88.906 100.564 82.954 135.346 82.954C170.128 82.954 341.872 82.954 376.654 82.954C411.436 82.954 435.999 88.906 449.186 111.747C462.373 134.588 455.246 158.836 437.855 188.958C420.464 219.08 334.592 367.815 317.201 397.937C299.81 428.059 282.374 446.355 256 446.355H256.001Z" stroke="#34A853" stroke-width="55" stroke-miterlimit="10"/>
<path d="M170.11 91.706C170.974 93.902 171.406 95 171.406 95C171.406 95 170.368 95 168.292 95C166.216 95 165.178 95 165.178 95C165.178 95 164.926 94.274 164.422 92.822L159.706 79.628L158.824 76.748H158.608L157.816 79.628L153.28 92.822C152.824 94.274 152.596 95 152.596 95C152.596 95 151.54 95 149.428 95C147.328 95 146.278 95 146.278 95C146.278 95 146.704 93.89 147.556 91.67L155.206 71.87C155.89 70.07 156.232 69.17 156.232 69.17C156.232 69.17 157.06 69.17 158.716 69.17C160.516 69.17 161.416 69.17 161.416 69.17C161.416 69.17 161.764 70.07 162.46 71.87L170.11 91.706ZM166.042 90.122H158.644V85.91H164.422L166.042 90.122ZM158.644 90.122H151.084L152.632 85.91H158.644V90.122ZM203.846 92.462C203.846 94.154 203.846 95 203.846 95C203.846 95 202.946 95 201.146 95C199.382 95 198.5 95 198.5 95C198.5 95 198.026 94.262 197.078 92.786L188.078 78.746H187.88L188.006 82.454V92.246C188.006 94.082 188.006 95 188.006 95C188.006 95 187.034 95 185.09 95C183.146 95 182.174 95 182.174 95C182.174 95 182.174 94.082 182.174 92.246L182.156 72.896C182.156 70.448 182.156 69.224 182.156 69.224C182.156 69.224 183.188 69.224 185.252 69.224C187.244 69.224 188.24 69.224 188.24 69.224C188.24 69.224 188.702 69.956 189.626 71.42L198.158 84.848H198.356L198.212 81.086V71.888C198.212 70.112 198.212 69.224 198.212 69.224C198.212 69.224 199.154 69.224 201.038 69.224C202.91 69.224 203.846 69.224 203.846 69.224C203.846 69.224 203.846 70.112 203.846 71.888V92.462ZM226.522 95H220.168C218.236 95 217.27 95 217.27 95C217.27 95 217.27 94.016 217.27 92.048V72.194C217.27 70.214 217.27 69.224 217.27 69.224C217.27 69.224 218.236 69.224 220.168 69.224H226.522C230.458 69.224 233.626 70.406 236.026 72.77C238.426 75.122 239.626 78.23 239.626 82.094C239.626 85.982 238.426 89.108 236.026 91.472C233.626 93.824 230.458 95 226.522 95ZM223.174 74.642V89.744H226.18C228.46 89.768 230.272 89.114 231.616 87.782C232.96 86.438 233.632 84.566 233.632 82.166C233.632 79.778 232.96 77.93 231.616 76.622C230.284 75.302 228.472 74.642 226.18 74.642H223.174ZM257.512 92.228C257.512 94.076 257.512 95 257.512 95C257.512 95 256.54 95 254.596 95C252.664 95 251.698 95 251.698 95C251.698 95 251.698 94.088 251.698 92.264V72.194C251.698 70.214 251.698 69.224 251.698 69.224C251.698 69.224 252.664 69.224 254.596 69.224H261.886C264.442 69.224 266.596 69.98 268.348 71.492C270.1 73.004 270.976 75.026 270.976 77.558C270.976 79.898 270.142 81.83 268.474 83.354C266.806 84.866 264.652 85.622 262.012 85.622H254.02V81.41H261.328C262.396 81.41 263.29 81.08 264.01 80.42C264.73 79.748 265.09 78.878 265.09 77.81C265.09 76.838 264.742 76.028 264.046 75.38C263.35 74.72 262.492 74.39 261.472 74.39H257.512V92.228ZM264.766 92.822L258.664 83.462L264.802 83.246L271.228 92.624C272.368 94.208 272.938 95 272.938 95C272.938 95 271.816 95 269.572 95C267.304 95 266.17 95 266.17 95C266.17 95 265.702 94.274 264.766 92.822ZM296.042 95.576C292.334 95.576 289.16 94.334 286.52 91.85C283.892 89.366 282.578 86.114 282.578 82.094C282.578 78.074 283.898 74.828 286.538 72.356C289.19 69.884 292.358 68.648 296.042 68.648C299.714 68.648 302.87 69.902 305.51 72.41C308.162 74.906 309.488 78.134 309.488 82.094C309.488 86.03 308.168 89.264 305.528 91.796C302.9 94.316 299.738 95.576 296.042 95.576ZM296.042 89.834C298.19 89.834 299.978 89.102 301.406 87.638C302.846 86.174 303.566 84.326 303.566 82.094C303.566 79.838 302.84 77.99 301.388 76.55C299.948 75.11 298.166 74.39 296.042 74.39C293.918 74.39 292.13 75.116 290.678 76.568C289.238 78.008 288.518 79.85 288.518 82.094C288.518 84.35 289.232 86.204 290.66 87.656C292.1 89.108 293.894 89.834 296.042 89.834ZM327.639 92.048C327.639 94.016 327.639 95 327.639 95C327.639 95 326.631 95 324.615 95C322.587 95 321.573 95 321.573 95C321.573 95 321.573 94.016 321.573 92.048V72.176C321.573 70.208 321.573 69.224 321.573 69.224C321.573 69.224 322.581 69.224 324.597 69.224C326.625 69.224 327.639 69.224 327.639 69.224C327.639 69.224 327.639 70.208 327.639 72.176V92.048ZM350.312 95H343.958C342.026 95 341.06 95 341.06 95C341.06 95 341.06 94.016 341.06 92.048V72.194C341.06 70.214 341.06 69.224 341.06 69.224C341.06 69.224 342.026 69.224 343.958 69.224H350.312C354.248 69.224 357.416 70.406 359.816 72.77C362.216 75.122 363.416 78.23 363.416 82.094C363.416 85.982 362.216 89.108 359.816 91.472C357.416 93.824 354.248 95 350.312 95ZM346.964 74.642V89.744H349.97C352.25 89.768 354.062 89.114 355.406 87.782C356.75 86.438 357.422 84.566 357.422 82.166C357.422 79.778 356.75 77.93 355.406 76.622C354.074 75.302 352.262 74.642 349.97 74.642H346.964Z" fill="#E9F3EB"/>
<path d="M236.586 363.25C236.586 365.75 236.586 367 236.586 367C236.586 367 235.32 367 232.786 367C230.32 367 229.086 367 229.086 367C229.086 367 229.086 365.75 229.086 363.25V305.85L216.636 314.75C215.003 315.917 214.186 316.5 214.186 316.5C214.186 316.5 213.536 315.5 212.236 313.5C210.97 311.6 210.336 310.65 210.336 310.65C210.336 310.617 211.203 309.983 212.936 308.75L227.636 298.2C230.303 296.233 231.636 295.25 231.636 295.25C231.636 295.25 232.103 295.25 233.036 295.25C235.403 295.25 236.586 295.25 236.586 295.25C236.586 295.25 236.586 296.467 236.586 298.9V363.25ZM247.088 330L251.188 299C251.521 296.6 251.688 295.4 251.688 295.4C251.688 295.4 252.771 295.4 254.938 295.4H284.538C286.971 295.4 288.188 295.4 288.188 295.4C288.188 295.4 288.188 296.583 288.188 298.95C288.188 301.483 288.188 302.75 288.188 302.75C288.188 302.75 286.971 302.75 284.538 302.75H257.488L254.188 327.45L254.388 327.5C256.088 325.767 258.271 324.383 260.938 323.35C263.605 322.283 266.655 321.75 270.088 321.75C276.555 321.75 281.988 323.967 286.388 328.4C290.788 332.8 292.988 338.317 292.988 344.95C292.988 351.75 290.805 357.4 286.438 361.9C282.105 366.367 276.421 368.6 269.388 368.6C263.088 368.6 257.771 367 253.438 363.8C249.105 360.6 246.255 356.85 244.888 352.55C244.255 350.317 243.938 349.2 243.938 349.2C243.938 349.2 245.088 348.767 247.388 347.9C249.788 347 250.988 346.55 250.988 346.55C250.988 346.55 251.305 347.733 251.938 350.1C252.805 352.733 254.705 355.267 257.638 357.7C260.605 360.133 264.438 361.35 269.138 361.35C274.271 361.35 278.238 359.883 281.038 356.95C283.838 353.983 285.238 350.033 285.238 345.1C285.238 340.367 283.671 336.517 280.538 333.55C277.438 330.583 273.405 329.1 268.438 329.1C265.471 329.1 262.955 329.517 260.888 330.35C258.821 331.15 257.088 332.283 255.688 333.75C254.388 335.25 253.738 336 253.738 336C253.738 336 252.555 335.517 250.188 334.55C247.855 333.617 246.688 333.15 246.688 333.15C246.688 333.15 246.821 332.1 247.088 330Z" fill="#E9F3EB"/>
<path d="M256.12 121C249.426 121 244 126.27 244 132.771V147.29C244 148.545 245.017 149.563 246.273 149.563C247.528 149.563 248.546 148.546 248.546 147.29V143.376C248.546 140.866 250.581 138.831 253.091 138.831H259.151C261.661 138.831 263.696 140.866 263.696 143.376V147.29C263.696 148.545 264.713 149.563 265.969 149.563C267.225 149.563 268.242 148.546 268.242 147.29V132.771C268.242 126.27 262.816 121 256.122 121H256.12Z" fill="#E9F3EB"/>
</svg>