<svg width="512" height="512" viewBox="0 0 512 512" fill="none" xmlns="http://www.w3.org/2000/svg">
<circle cx="256" cy="256" r="182" fill="#0D242F"/>
<path d="M432.732 274.756L442.273 241.221L426.732 210.01L432.732 274.756Z" fill="#0D242F"/>
<path d="M423.516 175.294L397.75 151.805L426.733 210.01L423.516 175.294Z" fill="#0D242F"/>
<path d="M323.933 84.5115H289.066L349.699 108L323.933 84.5115Z" fill="#0D242F"/>
<path d="M382.209 120.595L349.698 108L397.75 151.805L382.209 120.595Z" fill="#0D242F"/>
<path d="M256.556 71.9172L224.046 84.5116H289.066L256.556 71.9172Z" fill="#0D242F"/>
<path d="M222.284 441.768L256.557 435.361L192.642 423.413L222.284 441.768Z" fill="#0D242F"/>
<path d="M290.828 441.768L320.471 423.413L256.556 435.361L290.828 441.768Z" fill="#0D242F"/>
<path d="M354.743 417.007L375.754 389.183L320.471 423.413L354.743 417.007Z" fill="#0D242F"/>
<path d="M405.398 370.829L414.938 337.295L375.755 389.183L405.398 370.829Z" fill="#0D242F"/>
<path d="M435.949 309.473L432.732 274.756L414.938 337.295L435.949 309.473Z" fill="#0D242F"/>
<path d="M158.369 417.007L192.641 423.413L137.357 389.183L158.369 417.007Z" fill="#0D242F"/>
<path d="M70.8389 241.221L80.3803 274.756L86.3796 210.01L70.8389 241.221Z" fill="#0D242F"/>
<path d="M130.903 120.595L115.362 151.805L163.414 108L130.903 120.595Z" fill="#0D242F"/>
<path d="M107.714 370.829L137.357 389.183L98.1738 337.295L107.714 370.829Z" fill="#0D242F"/>
<path d="M89.5955 175.294L86.3789 210.01L115.362 151.805L89.5955 175.294Z" fill="#0D242F"/>
<path d="M189.18 84.5115L163.414 108L224.046 84.5115H189.18Z" fill="#0D242F"/>
<path d="M77.1631 309.473L98.1736 337.295L80.3797 274.756L77.1631 309.473Z" fill="#0D242F"/>
<path d="M426.733 210.01L442.274 241.221L453.305 202.45L423.517 175.294L426.733 210.01Z" fill="#66245A"/>
<path d="M289.066 84.5117H323.932L294.144 57.3557L256.556 71.9174L289.066 84.5117Z" fill="#66245A"/>
<path d="M349.699 108.001L382.21 120.595L364.242 84.5117H323.933L349.699 108.001Z" fill="#66245A"/>
<path d="M397.75 151.805L423.516 175.294L419.796 135.157L382.209 120.595L397.75 151.805Z" fill="#66245A"/>
<path d="M375.755 389.183L354.743 417.007L394.366 409.6L405.397 370.83L375.755 389.183Z" fill="#66245A"/>
<path d="M256.557 435.361L222.284 441.768L256.557 462.988L290.829 441.768L256.557 435.361Z" fill="#66245A"/>
<path d="M224.046 84.5117L256.556 71.9174L218.968 57.3557L189.18 84.5117H224.046Z" fill="#66245A"/>
<path d="M192.64 423.413L158.368 417.007L182.661 449.175L222.283 441.768L192.64 423.413Z" fill="#66245A"/>
<path d="M414.938 337.295L405.397 370.83L439.668 349.609L435.948 309.473L414.938 337.295Z" fill="#66245A"/>
<path d="M432.732 274.756L435.949 309.473L460.241 277.305L442.274 241.221L432.732 274.756Z" fill="#66245A"/>
<path d="M320.472 423.413L290.829 441.768L330.452 449.175L354.744 417.007L320.472 423.413Z" fill="#66245A"/>
<path d="M86.3799 210.01L89.5965 175.294L59.8076 202.45L70.8392 241.221L86.3799 210.01Z" fill="#66245A"/>
<path d="M115.363 151.805L130.903 120.595L93.3162 135.157L89.5967 175.294L115.363 151.805Z" fill="#66245A"/>
<path d="M163.414 108.001L189.18 84.5117H148.871L130.903 120.595L163.414 108.001Z" fill="#66245A"/>
<path d="M98.1743 337.295L77.1638 309.473L73.4443 349.609L107.715 370.83L98.1743 337.295Z" fill="#66245A"/>
<path d="M137.358 389.183L107.715 370.83L118.746 409.6L158.369 417.007L137.358 389.183Z" fill="#66245A"/>
<path d="M80.3801 274.756L70.8388 241.221L52.8711 277.305L77.1635 309.473L80.3801 274.756Z" fill="#66245A"/>
<path d="M419.797 135.157L416.988 104.843C415.92 93.3232 406.255 84.5117 394.686 84.5117H364.241L382.209 120.595L419.796 135.157H419.797Z" fill="#B31F7F"/>
<path d="M453.305 202.45L461.637 173.168C464.803 162.041 458.973 150.333 448.186 146.153L419.797 135.156L423.516 175.293L453.305 202.45Z" fill="#B31F7F"/>
<path d="M364.242 84.5117L350.672 57.2601C345.516 46.9042 333.319 42.179 322.532 46.3582L294.145 57.3557L323.933 84.5117H364.243H364.242Z" fill="#B31F7F"/>
<path d="M294.145 57.3558L271.646 36.8453C263.097 29.0515 250.018 29.0515 241.469 36.8453L218.97 57.3558L256.558 71.9175L294.146 57.3558H294.145Z" fill="#B31F7F"/>
<path d="M330.452 449.175L360.378 454.769C371.75 456.894 382.87 450.01 386.036 438.882L394.367 409.601L354.745 417.008L330.453 449.176L330.452 449.175Z" fill="#B31F7F"/>
<path d="M256.557 462.988L282.44 479.015C292.277 485.106 305.132 482.703 312.104 473.47L330.452 449.175L290.828 441.768L256.556 462.988H256.557Z" fill="#B31F7F"/>
<path d="M182.662 449.175L201.009 473.47C207.981 482.703 220.838 485.106 230.673 479.015L256.557 462.988L222.285 441.768L182.662 449.175Z" fill="#B31F7F"/>
<path d="M475.804 222.961L453.305 202.45L442.273 241.221L460.241 277.304L478.588 253.009C485.559 243.776 484.352 230.754 475.803 222.96L475.804 222.961Z" fill="#B31F7F"/>
<path d="M439.669 349.609L465.552 333.582C475.389 327.492 478.968 314.912 473.811 304.557L460.242 277.305L435.949 309.473L439.669 349.609Z" fill="#B31F7F"/>
<path d="M394.367 409.6L424.292 404.006C435.664 401.881 443.546 391.443 442.479 379.923L439.669 349.609L405.398 370.829L394.366 409.599L394.367 409.6Z" fill="#B31F7F"/>
<path d="M118.747 409.6L127.079 438.881C130.245 450.009 141.365 456.894 152.736 454.768L182.662 449.174L158.371 417.006L118.748 409.599L118.747 409.6Z" fill="#B31F7F"/>
<path d="M93.3163 135.157L64.9275 146.154C54.1396 150.333 48.3103 162.041 51.4764 173.169L59.808 202.451L89.5969 175.294L93.3163 135.157Z" fill="#B31F7F"/>
<path d="M148.871 84.5117H118.427C106.858 84.5117 97.193 93.3232 96.1248 104.843L93.3154 135.157L130.903 120.595L148.871 84.5117Z" fill="#B31F7F"/>
<path d="M218.968 57.3557L190.581 46.3582C179.793 42.179 167.597 46.9033 162.441 57.2601L148.871 84.5118H189.18L218.969 57.3557H218.968Z" fill="#B31F7F"/>
<path d="M59.8077 202.45L37.3088 222.961C28.7594 230.754 27.5523 243.777 34.5243 253.01L52.8707 277.305L70.8383 241.222L59.8068 202.451L59.8077 202.45Z" fill="#B31F7F"/>
<path d="M73.4441 349.609L70.6348 379.924C69.5674 391.444 77.4486 401.881 88.8212 404.007L118.746 409.601L107.715 370.83L73.4432 349.61L73.4441 349.609Z" fill="#B31F7F"/>
<path d="M52.8718 277.305L39.3021 304.557C34.1457 314.912 37.7246 327.492 47.561 333.582L73.4448 349.609L77.1642 309.473L52.8718 277.305Z" fill="#B31F7F"/>
<path d="M155.269 226.896C156.001 226.164 156.368 225.797 156.797 225.678C157.093 225.596 157.406 225.596 157.702 225.678C158.131 225.797 158.498 226.164 159.23 226.896C159.963 227.629 160.329 227.995 160.448 228.424C160.53 228.72 160.53 229.033 160.448 229.33C160.329 229.759 159.963 230.125 159.23 230.857C158.498 231.59 158.131 231.956 157.702 232.075C157.406 232.158 157.093 232.158 156.797 232.075C156.368 231.956 156.001 231.59 155.269 230.857C154.536 230.125 154.17 229.759 154.051 229.33C153.969 229.033 153.969 228.72 154.051 228.424C154.17 227.995 154.536 227.629 155.269 226.896Z" fill="#E08DE9"/>
<path d="M130.424 254.28C131.157 253.547 131.523 253.181 131.952 253.062C132.248 252.979 132.561 252.979 132.858 253.062C133.287 253.181 133.653 253.547 134.385 254.28C135.118 255.012 135.484 255.379 135.603 255.808C135.686 256.104 135.686 256.417 135.603 256.713C135.484 257.142 135.118 257.508 134.385 258.241C133.653 258.974 133.287 259.34 132.858 259.459C132.561 259.541 132.248 259.541 131.952 259.459C131.523 259.34 131.157 258.974 130.424 258.241C129.692 257.508 129.325 257.142 129.206 256.713C129.124 256.417 129.124 256.104 129.206 255.808C129.325 255.379 129.692 255.012 130.424 254.28Z" fill="#E08DE9"/>
<path d="M283.911 107.08C284.643 106.348 285.009 105.982 285.438 105.862C285.735 105.78 286.048 105.78 286.344 105.862C286.773 105.982 287.139 106.348 287.872 107.08C288.604 107.813 288.971 108.179 289.09 108.608C289.172 108.905 289.172 109.218 289.09 109.514C288.971 109.943 288.604 110.309 287.872 111.042C287.139 111.774 286.773 112.141 286.344 112.26C286.048 112.342 285.735 112.342 285.438 112.26C285.009 112.141 284.643 111.774 283.911 111.042C283.178 110.309 282.812 109.943 282.693 109.514C282.61 109.218 282.61 108.905 282.693 108.608C282.812 108.179 283.178 107.813 283.911 107.08Z" fill="#E08DE9"/>
<path d="M407.188 255.931C407.721 255.398 407.988 255.131 408.3 255.045C408.515 254.985 408.743 254.985 408.958 255.045C409.27 255.131 409.537 255.398 410.069 255.931C410.602 256.463 410.869 256.73 410.955 257.042C411.015 257.257 411.015 257.485 410.955 257.7C410.869 258.012 410.602 258.279 410.069 258.812C409.537 259.344 409.27 259.611 408.958 259.697C408.743 259.757 408.515 259.757 408.3 259.697C407.988 259.611 407.721 259.344 407.188 258.812C406.656 258.279 406.389 258.012 406.303 257.7C406.243 257.485 406.243 257.257 406.303 257.042C406.389 256.73 406.656 256.463 407.188 255.931Z" fill="#E08DE9"/>
<path d="M225.333 106.931C225.866 106.398 226.132 106.131 226.444 106.045C226.66 105.985 226.887 105.985 227.103 106.045C227.415 106.131 227.681 106.398 228.214 106.931C228.747 107.463 229.013 107.73 229.1 108.042C229.16 108.257 229.16 108.485 229.1 108.7C229.013 109.012 228.747 109.279 228.214 109.812C227.681 110.344 227.415 110.611 227.103 110.697C226.887 110.757 226.66 110.757 226.444 110.697C226.132 110.611 225.866 110.344 225.333 109.812C224.8 109.279 224.534 109.012 224.447 108.7C224.387 108.485 224.387 108.257 224.447 108.042C224.534 107.73 224.8 107.463 225.333 106.931Z" fill="#E08DE9"/>
<path d="M354.512 333.191C355.045 332.658 355.311 332.392 355.623 332.305C355.838 332.245 356.066 332.245 356.281 332.305C356.593 332.392 356.86 332.658 357.393 333.191C357.925 333.724 358.192 333.99 358.278 334.302C358.338 334.517 358.338 334.745 358.278 334.961C358.192 335.273 357.925 335.539 357.393 336.072C356.86 336.605 356.593 336.871 356.281 336.958C356.066 337.017 355.838 337.017 355.623 336.958C355.311 336.871 355.045 336.605 354.512 336.072C353.979 335.539 353.713 335.273 353.626 334.961C353.566 334.745 353.566 334.517 353.626 334.302C353.713 333.99 353.979 333.724 354.512 333.191Z" fill="#E08DE9"/>
<path d="M116.157 300.595C116.69 300.062 116.956 299.796 117.268 299.709C117.484 299.649 117.712 299.649 117.927 299.709C118.239 299.796 118.505 300.062 119.038 300.595C119.571 301.128 119.837 301.394 119.924 301.706C119.984 301.921 119.984 302.149 119.924 302.364C119.837 302.676 119.571 302.943 119.038 303.476C118.505 304.008 118.239 304.275 117.927 304.361C117.712 304.421 117.484 304.421 117.268 304.361C116.956 304.275 116.69 304.008 116.157 303.476C115.624 302.943 115.358 302.676 115.271 302.364C115.212 302.149 115.212 301.921 115.271 301.706C115.358 301.394 115.624 301.128 116.157 300.595Z" fill="#E08DE9"/>
<path d="M345.912 305.384C346.445 304.851 346.711 304.585 347.023 304.498C347.239 304.439 347.466 304.439 347.682 304.498C347.994 304.585 348.26 304.851 348.793 305.384C349.326 305.917 349.592 306.183 349.679 306.495C349.739 306.711 349.739 306.939 349.679 307.154C349.592 307.466 349.326 307.732 348.793 308.265C348.26 308.798 347.994 309.064 347.682 309.151C347.466 309.211 347.239 309.211 347.023 309.151C346.711 309.064 346.445 308.798 345.912 308.265C345.379 307.732 345.113 307.466 345.026 307.154C344.966 306.939 344.966 306.711 345.026 306.495C345.113 306.183 345.379 305.917 345.912 305.384Z" fill="#E08DE9"/>
<path d="M208.013 337.931C208.545 337.398 208.812 337.131 209.124 337.045C209.339 336.985 209.567 336.985 209.782 337.045C210.094 337.131 210.361 337.398 210.894 337.931C211.426 338.463 211.693 338.73 211.779 339.042C211.839 339.257 211.839 339.485 211.779 339.7C211.693 340.012 211.426 340.279 210.894 340.812C210.361 341.344 210.094 341.611 209.782 341.697C209.567 341.757 209.339 341.757 209.124 341.697C208.812 341.611 208.545 341.344 208.013 340.812C207.48 340.279 207.214 340.012 207.127 339.7C207.067 339.485 207.067 339.257 207.127 339.042C207.214 338.73 207.48 338.463 208.013 337.931Z" fill="#E08DE9"/>
<path d="M374.96 216.61C375.693 215.878 376.059 215.511 376.488 215.392C376.784 215.31 377.097 215.31 377.394 215.392C377.823 215.511 378.189 215.878 378.922 216.61C379.654 217.343 380.02 217.709 380.14 218.138C380.222 218.434 380.222 218.748 380.14 219.044C380.02 219.473 379.654 219.839 378.922 220.572C378.189 221.304 377.823 221.67 377.394 221.79C377.097 221.872 376.784 221.872 376.488 221.79C376.059 221.67 375.693 221.304 374.96 220.572C374.228 219.839 373.861 219.473 373.742 219.044C373.66 218.748 373.66 218.434 373.742 218.138C373.861 217.709 374.228 217.343 374.96 216.61Z" fill="#E08DE9"/>
<path d="M102.28 254.944C103.012 254.211 103.379 253.845 103.808 253.726C104.104 253.644 104.417 253.644 104.713 253.726C105.142 253.845 105.508 254.211 106.241 254.944C106.974 255.676 107.34 256.043 107.459 256.472C107.541 256.768 107.541 257.081 107.459 257.377C107.34 257.806 106.974 258.172 106.241 258.905C105.508 259.638 105.142 260.004 104.713 260.123C104.417 260.205 104.104 260.205 103.808 260.123C103.379 260.004 103.012 259.638 102.28 258.905C101.547 258.172 101.181 257.806 101.062 257.377C100.979 257.081 100.979 256.768 101.062 256.472C101.181 256.043 101.547 255.676 102.28 254.944Z" fill="#E08DE9"/>
<path d="M153.343 322.204C154.408 321.139 154.941 320.606 155.565 320.433C155.996 320.313 156.451 320.313 156.882 320.433C157.506 320.606 158.039 321.139 159.105 322.204C160.17 323.27 160.703 323.803 160.876 324.427C160.996 324.858 160.996 325.313 160.876 325.744C160.703 326.368 160.17 326.901 159.105 327.966C158.039 329.032 157.506 329.565 156.882 329.738C156.451 329.857 155.996 329.857 155.565 329.738C154.941 329.565 154.408 329.032 153.343 327.966C152.277 326.901 151.744 326.368 151.571 325.744C151.452 325.313 151.452 324.858 151.571 324.427C151.744 323.803 152.277 323.27 153.343 322.204Z" fill="#E08DE9"/>
<path d="M117.088 186.526C118.153 185.46 118.686 184.927 119.31 184.754C119.741 184.634 120.196 184.634 120.627 184.754C121.251 184.927 121.784 185.46 122.85 186.526C123.915 187.591 124.448 188.124 124.621 188.748C124.741 189.179 124.741 189.634 124.621 190.065C124.448 190.689 123.915 191.222 122.85 192.287C121.784 193.353 121.251 193.886 120.627 194.059C120.196 194.179 119.741 194.179 119.31 194.059C118.686 193.886 118.153 193.353 117.088 192.287C116.022 191.222 115.49 190.689 115.316 190.065C115.197 189.634 115.197 189.179 115.316 188.748C115.49 188.124 116.022 187.591 117.088 186.526Z" fill="#E08DE9"/>
<path d="M398.377 223.861C399.443 222.796 399.975 222.263 400.599 222.09C401.03 221.97 401.486 221.97 401.916 222.09C402.54 222.263 403.073 222.796 404.139 223.861C405.204 224.927 405.737 225.46 405.91 226.084C406.03 226.515 406.03 226.97 405.91 227.401C405.737 228.025 405.204 228.558 404.139 229.623C403.073 230.689 402.54 231.222 401.916 231.395C401.486 231.514 401.03 231.514 400.599 231.395C399.975 231.222 399.443 230.689 398.377 229.623C397.311 228.558 396.779 228.025 396.605 227.401C396.486 226.97 396.486 226.515 396.605 226.084C396.779 225.46 397.311 224.927 398.377 223.861Z" fill="#E08DE9"/>
<path d="M252.243 101.861C253.309 100.796 253.842 100.263 254.466 100.09C254.896 99.9701 255.352 99.9701 255.783 100.09C256.407 100.263 256.939 100.796 258.005 101.861C259.071 102.927 259.603 103.46 259.777 104.084C259.896 104.515 259.896 104.97 259.777 105.401C259.603 106.025 259.071 106.558 258.005 107.623C256.939 108.689 256.407 109.222 255.783 109.395C255.352 109.514 254.896 109.514 254.466 109.395C253.842 109.222 253.309 108.689 252.243 107.623C251.178 106.558 250.645 106.025 250.472 105.401C250.352 104.97 250.352 104.515 250.472 104.084C250.645 103.46 251.178 102.927 252.243 101.861Z" fill="#E08DE9"/>
<path d="M303.119 381.861C304.185 380.796 304.717 380.263 305.342 380.09C305.772 379.97 306.228 379.97 306.659 380.09C307.283 380.263 307.815 380.796 308.881 381.861C309.947 382.927 310.479 383.46 310.653 384.084C310.772 384.515 310.772 384.97 310.653 385.401C310.479 386.025 309.947 386.558 308.881 387.623C307.815 388.689 307.283 389.222 306.659 389.395C306.228 389.514 305.772 389.514 305.342 389.395C304.717 389.222 304.185 388.689 303.119 387.623C302.054 386.558 301.521 386.025 301.348 385.401C301.228 384.97 301.228 384.515 301.348 384.084C301.521 383.46 302.054 382.927 303.119 381.861Z" fill="#E08DE9"/>
<path d="M397.795 263.28C398.528 262.547 398.894 262.181 399.323 262.062C399.619 261.979 399.932 261.979 400.229 262.062C400.658 262.181 401.024 262.547 401.757 263.28C402.489 264.012 402.855 264.379 402.975 264.808C403.057 265.104 403.057 265.417 402.975 265.713C402.855 266.142 402.489 266.508 401.757 267.241C401.024 267.974 400.658 268.34 400.229 268.459C399.932 268.541 399.619 268.541 399.323 268.459C398.894 268.34 398.528 267.974 397.795 267.241C397.063 266.508 396.696 266.142 396.577 265.713C396.495 265.417 396.495 265.104 396.577 264.808C396.696 264.379 397.063 264.012 397.795 263.28Z" fill="#E08DE9"/>
<circle cx="255.863" cy="256.373" r="76.631" transform="rotate(-45 255.863 256.373)" fill="#34A853" stroke="#61DD82" stroke-width="8"/>
<path d="M201.677 310.559L215.223 297.012" stroke="#61DD82" stroke-width="8" stroke-linecap="round"/>
<path d="M236.49 329L264.929 301.492" stroke="#61DD82" stroke-width="8" stroke-linecap="round"/>
<path d="M292.049 271.576L319.755 244.576" stroke="#61DD82" stroke-width="8" stroke-linecap="round"/>
<path d="M181.356 249.599L201.676 229.28" stroke="#61DD82" stroke-width="8" stroke-linecap="round"/>
<path d="M266.023 246.213L288.023 224.213" stroke="#61DD82" stroke-width="8" stroke-linecap="round"/>
<path d="M286.343 252.986L320.209 219.119" stroke="#61DD82" stroke-width="8" stroke-linecap="round"/>
<path d="M249.089 236.052L255.862 229.279" stroke="#61DD82" stroke-width="8" stroke-linecap="round"/>
<path d="M269.409 215.733L293.116 192.027" stroke="#61DD82" stroke-width="8" stroke-linecap="round"/>
<path d="M215.223 215.733L221.996 208.96" stroke="#61DD82" stroke-width="8" stroke-linecap="round"/>
<path d="M233.49 197.773L234.264 197" stroke="#61DD82" stroke-width="8" stroke-linecap="round"/>
<path d="M272.49 316.707L273.197 316" stroke="#61DD82" stroke-width="8" stroke-linecap="round"/>
<path d="M298.49 213.707L299.197 213" stroke="#61DD82" stroke-width="8" stroke-linecap="round"/>
<path d="M236 277.707L236.707 277" stroke="#61DD82" stroke-width="8" stroke-linecap="round"/>
<path d="M184.744 273.306L208.451 249.599" stroke="#61DD82" stroke-width="8" stroke-linecap="round"/>
<path d="M196.29 288.853L192.903 292.239" stroke="#61DD82" stroke-width="8" stroke-linecap="round"/>
<path d="M218.61 320.719L222.61 316.719" stroke="#61DD82" stroke-width="8" stroke-linecap="round"/>
<path d="M284.49 305L330.369 258" stroke="#61DD82" stroke-width="8" stroke-linecap="round"/>
<path d="M222.184 235.867L275.184 182.867" stroke="#61DD82" stroke-width="8" stroke-linecap="round"/>
<path d="M266.023 300.399C284.496 281.927 266.331 272.998 286.343 252.986" stroke="#61DD82" stroke-width="8" stroke-linecap="round"/>
<path d="M266.521 299.901C236.041 330.381 193.708 291.434 220.801 264.341C244.508 240.635 273.711 268.695 255.99 288.5" stroke="#61DD82" stroke-width="8" stroke-linecap="round"/>
<path d="M232.16 252L232.16 255" stroke="#61DD82" stroke-width="8" stroke-linecap="round"/>
<path d="M239.049 397.57C237.609 397.57 236.359 397.08 235.299 396.1C234.259 395.1 233.739 393.89 233.739 392.47V365.17L216.789 373.66C215.709 374.2 214.589 374.28 213.429 373.9C212.269 373.5 211.429 372.78 210.909 371.74C210.329 370.64 210.229 369.51 210.609 368.35C211.009 367.17 211.789 366.31 212.949 365.77L235.749 354.43C236.309 354.13 236.849 353.91 237.369 353.77C237.909 353.63 238.449 353.56 238.989 353.56C240.569 353.56 241.859 354.13 242.859 355.27C243.879 356.41 244.389 357.86 244.389 359.62V392.47C244.389 393.89 243.859 395.1 242.799 396.1C241.759 397.08 240.509 397.57 239.049 397.57ZM268.29 396.19C267.37 395.27 266.92 394.16 266.94 392.86C266.98 391.56 267.48 390.45 268.44 389.53L293.91 362.77L293.85 362.62H261.09C259.91 362.62 258.89 362.2 258.03 361.36C257.19 360.52 256.77 359.51 256.77 358.33C256.77 357.15 257.19 356.14 258.03 355.3C258.89 354.46 259.91 354.04 261.09 354.04H301.98C303.54 354.04 304.86 354.57 305.94 355.63C307.04 356.67 307.59 357.95 307.59 359.47C307.59 360.35 307.4 361.13 307.02 361.81C306.66 362.47 306.24 363.04 305.76 363.52L274.65 396.22C273.79 397.06 272.73 397.47 271.47 397.45C270.21 397.45 269.15 397.03 268.29 396.19Z" fill="white"/>
<path d="M164.49 206.871L149.095 180.342L152.775 175.781L181.934 185.25L177.526 190.714L160.242 184.426L157.239 183.211L157.176 183.289L158.983 185.955L168.76 201.578L164.49 206.871ZM163.544 199.22L161.019 195.024L169.27 184.798L173.955 186.316L163.544 199.22ZM187.427 178.601L172.264 154.305L177.846 150.821L196.577 159.831L196.678 159.767L194.258 156.115L187.28 144.934L192.573 141.63L207.737 165.927L202.85 168.976L183.053 159.807L182.951 159.87L185.351 163.489L192.721 175.298L187.427 178.601ZM217.227 160.111L210.987 132.159L220.863 129.954C225.132 129.001 228.86 129.515 232.048 131.494C235.236 133.474 237.296 136.552 238.228 140.729C239.17 144.946 238.619 148.627 236.575 151.775C234.529 154.909 231.372 156.953 227.104 157.906L217.227 160.111ZM222.314 153.156L225.534 152.437C228.049 151.889 229.871 150.717 231 148.921C232.139 147.11 232.411 144.87 231.815 142.202C231.228 139.574 230.039 137.701 228.246 136.585C226.463 135.453 224.316 135.167 221.804 135.728L218.583 136.447L222.314 153.156ZM251.098 152.68L253.976 124.185L265.318 125.331C268.144 125.616 270.44 126.692 272.208 128.559C273.976 130.426 274.72 132.753 274.439 135.539C274.175 138.152 273.036 140.208 271.022 141.706C269.009 143.192 266.53 143.786 263.585 143.488L254.83 142.604L255.296 137.988L263.315 138.798C264.509 138.918 265.548 138.648 266.432 137.987C267.318 137.312 267.822 136.365 267.945 135.144C268.055 134.056 267.756 133.102 267.049 132.28C266.342 131.444 265.419 130.969 264.278 130.854L259.86 130.408L257.546 153.331L251.098 152.68ZM266.958 154.282L260.089 140.683L266.899 141.129L274.36 155.029L266.958 154.282ZM294.007 162.21C290.265 160.455 287.67 157.698 286.221 153.941C284.785 150.19 285.007 146.31 286.887 142.302C288.772 138.282 291.617 135.64 295.421 134.376C299.242 133.105 303.012 133.342 306.73 135.086C310.448 136.829 313.028 139.586 314.47 143.355C315.931 147.118 315.729 150.985 313.867 154.957C312.021 158.892 309.188 161.525 305.368 162.856C301.548 164.186 297.761 163.971 294.007 162.21ZM296.682 156.506C298.843 157.52 300.99 157.621 303.123 156.81C305.268 156.005 306.875 154.461 307.946 152.18C309.027 149.874 309.186 147.651 308.423 145.511C307.659 143.371 306.203 141.797 304.054 140.789C301.918 139.787 299.774 139.68 297.622 140.467C295.483 141.261 293.878 142.798 292.808 145.079C291.732 147.373 291.564 149.599 292.304 151.758C293.062 153.91 294.521 155.493 296.682 156.506ZM317.214 172.582L336.039 150.998L340.983 155.31L322.157 176.894L317.214 172.582ZM331.824 185.656L354.857 168.635L360.871 176.774C363.47 180.291 364.51 183.908 363.991 187.624C363.471 191.341 361.49 194.471 358.048 197.014C354.574 199.582 350.984 200.568 347.279 199.974C343.584 199.372 340.437 197.312 337.838 193.795L331.824 185.656ZM340.243 187.492L342.204 190.146C343.723 192.223 345.532 193.415 347.631 193.72C349.749 194.029 351.907 193.371 354.105 191.746C356.271 190.146 357.502 188.3 357.796 186.208C358.11 184.12 357.502 182.041 355.973 179.971L354.011 177.317L340.243 187.492Z" fill="white"/>
</svg>
