<?xml version="1.0" encoding="UTF-8"?>
<svg id="Text" xmlns="http://www.w3.org/2000/svg" xmlns:xlink="http://www.w3.org/1999/xlink" viewBox="0 0 512 512">
  <defs>
    <linearGradient id="linear-gradient" x1="256" y1="21.811" x2="256" y2="350.423" gradientUnits="userSpaceOnUse">
      <stop offset="0" stop-color="#4283f2"/>
      <stop offset="1" stop-color="#073042"/>
    </linearGradient>
    <clipPath id="clippath">
      <circle cx="256" cy="256" r="200" style="fill: none;"/>
    </clipPath>
    <radialGradient id="radial-gradient" cx="256.449" cy="5.697" fx="256.449" fy="5.697" r="248.459" gradientUnits="userSpaceOnUse">
      <stop offset=".828" stop-color="#acc6f2"/>
      <stop offset="1" stop-color="#4283f2" stop-opacity="0"/>
    </radialGradient>
  </defs>
  <g>
    <circle cx="256" cy="256" r="200" style="fill: url(#linear-gradient);"/>
    <g style="clip-path: url(#clippath);">
      <g>
        <circle cx="256.449" cy="5.697" r="248.459" style="fill: url(#radial-gradient);"/>
        <path d="m195.27,187.642l2.253-6.689c13.913,78.126,50.844,284.385,50.844,50.331,0-.973.723-1.81,1.615-1.81h12.695c.896,0,1.623.827,1.623,1.804-.201,409.907-69.03-43.636-69.03-43.636Z" style="fill: #f8ff5c;"/>
        <path d="m158.775,180.678l-33.166,57.446c-1.905,3.299-.774,7.518,2.525,9.423,3.299,1.905,7.518.774,9.423-2.525l33.586-58.17c54.27,24.328,116.344,24.328,170.614,0l33.586,58.17c1.972,3.259,6.213,4.303,9.472,2.331,3.166-1.915,4.256-5.988,2.472-9.229l-33.164-57.446c56.952-30.973,95.908-88.642,101.607-156.764H57.168c5.7,68.122,44.655,125.791,101.607,156.764Z"/>
        <rect x="248.14" y="187.656" width="16.16" height="32.321" rx="2.125" ry="2.125" style="fill: #f8ff5c;"/>
        <rect x="248.14" y="170.286" width="16.16" height="8.08" rx="1.976" ry="1.976" style="fill: #f8ff5c;"/>
      </g>
      <rect x="171.917" y="216.823" width="4.04" height="4.04" style="fill: #fff;"/>
      <rect x="188.802" y="275.727" width="4.04" height="4.04" style="fill: #fff;"/>
      <rect x="369.04" y="337.634" width="4.04" height="4.04" style="fill: #fff;"/>
      <rect x="285.926" y="252.221" width="4.04" height="4.04" style="fill: #fff;"/>
      <rect x="318.96" y="218.843" width="4.04" height="4.04" style="fill: #fff;"/>
      <rect x="294.055" y="288.555" width="4.04" height="4.04" style="fill: #fff;"/>
      <rect x="330.819" y="273.31" width="8.08" height="8.08" style="fill: #fff;"/>
      <rect x="188.802" y="298.949" width="4.04" height="4.04" style="fill: #fff;"/>
      <rect x="220.141" y="238.941" width="8.08" height="8.08" style="fill: #fff;"/>
      <rect x="272.099" y="318.902" width="8.08" height="8.08" style="fill: #fff;"/>
      <rect x="293.338" y="349.248" width="8.08" height="8.08" style="fill: #fff;"/>
      <rect x="161.052" y="254.241" width="8.08" height="8.08" style="fill: #fff;"/>
      <rect x="380.271" y="190.876" width="8.08" height="8.08" style="fill: #fff;"/>
      <rect x="137.87" y="323.702" width="8.08" height="8.08" style="fill: #fff;"/>
    </g>
    <circle cx="256" cy="256" r="200" style="fill: none; stroke: #f86734; stroke-miterlimit: 10; stroke-width: 56.561px;"/>
    <g>
      <path d="m93.329,116.354l3.847-4.363,29.639,9.758-4.436,5.03-6.229-2.099-7.855,8.909,2.862,5.917-4.435,5.03-13.394-28.183Zm17.09,6.396l-8.863-3.021,4.107,8.415,4.756-5.395Z" style="fill: #fff;"/>
      <path d="m153.61,100.845l-21.711-6.204,10.376,14.382-5.209,3.759-16.781-23.261,4.488-3.237,21.654,6.194-10.353-14.349,5.242-3.782,16.781,23.26-4.488,3.238Z" style="fill: #fff;"/>
      <path d="m161.454,63.139l8.991-3.844c7.432-3.178,15.96.12,19.09,7.439,3.129,7.319-.381,15.764-7.812,18.94l-8.991,3.844-11.278-26.38Zm17.95,17.111c4.459-1.906,5.959-6.723,4.148-10.958-1.811-4.236-6.329-6.479-10.788-4.573l-3.084,1.318,6.64,15.531,3.084-1.318Z" style="fill: #fff;"/>
      <path d="m204.218,47.562l11.096-2.196c5.311-1.051,9.471,2.079,10.396,6.755.722,3.646-.758,6.368-4.073,8.342l12.401,10.436-7.568,1.498-11.65-9.761-1.03.204,2.298,11.611-6.301,1.247-5.568-28.136Zm12.555,9.128c1.862-.368,2.998-1.705,2.677-3.33-.338-1.704-1.881-2.428-3.743-2.06l-4.042.801,1.066,5.389,4.042-.8Z" style="fill: #fff;"/>
      <path d="m244.288,55.59c.133-8.159,6.865-14.716,15.064-14.582,8.158.132,14.715,6.904,14.582,15.063s-6.905,14.715-15.064,14.582c-8.199-.133-14.714-6.904-14.582-15.063Zm23.143.376c.075-4.645-3.536-8.663-8.181-8.738-4.685-.076-8.424,3.822-8.5,8.467-.076,4.646,3.535,8.663,8.22,8.739,4.645.075,8.385-3.823,8.46-8.468Z" style="fill: #fff;"/>
      <path d="m294.378,44.827l6.306,1.23-5.492,28.157-6.306-1.23,5.492-28.157Z" style="fill: #fff;"/>
      <path d="m321.929,51.407l9.135,3.482c7.551,2.878,11.393,11.173,8.558,18.61-2.834,7.437-11.224,11.07-18.773,8.192l-9.136-3.482,10.217-26.803Zm1.02,24.773c4.53,1.727,8.955-.694,10.596-4.998,1.64-4.303-.051-9.055-4.581-10.781l-3.133-1.194-6.015,15.779,3.133,1.194Z" style="fill: #fff;"/>
      <path d="m381.4,89.229l-4.208-3.211,3.651-4.785,9.059,6.91-17.399,22.805-4.851-3.7,13.748-18.019Z" style="fill: #fff;"/>
      <path d="m397.949,126.365l-9.557-10.256,3.605-3.36,22.798-1.254,3.745,4.02-12.354,11.513,2.507,2.689-4.079,3.801-2.506-2.689-4.552,4.241-4.159-4.463,4.552-4.241Zm9.872-9.199l-10.282.58,4.489,4.818,5.793-5.398Z" style="fill: #fff;"/>
    </g>
  </g>
  <path d="m256,126.046c-6.694,0-12.12,5.27-12.12,11.771v14.519c0,1.255,1.017,2.273,2.273,2.273s2.273-1.017,2.273-2.273v-3.914c0-2.51,2.035-4.545,4.545-4.545h6.06c2.51,0,4.545,2.035,4.545,4.545v3.914c0,1.255,1.017,2.273,2.273,2.273s2.273-1.017,2.273-2.273v-14.519c0-6.501-5.426-11.771-12.12-11.771Z" style="fill: #3ddc84;"/>
</svg>